<svg aria-hidden="true" style="position: absolute; width: 0; height: 0; overflow: hidden;" version="1.1" xmlns="http://www.w3.org/2000/svg" xmlns:xlink="http://www.w3.org/1999/xlink">
<defs>
<symbol id="icon-chocolate" viewBox="0 0 32 32">
<path fill="#000" style="fill: var(--color1, #000)" d="M13.822 2.413l7.527 7.536 0.080-0.080c0.158-0.154 0.369-0.242 0.589-0.244s0.434 0.080 0.595 0.231l0.873 0.873c0.305 0.305 0.315 0.77 0.083 1.094l-0.004 0.007-0.143 0.192 6.16 6.16c0.55 0.55 0.55 1.43 0 1.98l-9.43 9.43c-0.55 0.55-1.43 0.55-1.98 0l-4.447-4.447c-0.074 0.093-0.167 0.169-0.272 0.224s-0.221 0.086-0.34 0.093c-0.119 0.007-0.237-0.012-0.348-0.054s-0.212-0.108-0.296-0.192l-2.6-2.6c-0.154-0.158-0.242-0.369-0.244-0.589s0.080-0.434 0.231-0.595l0.006-0.007 0.077-0.076-7.527-7.527c-0.55-0.55-0.55-1.43 0-1.98l9.43-9.43c0.55-0.55 1.43-0.55 1.98 0v0.001zM20.404 10.893l-1.756-1.755c-0.055-0.057-0.121-0.102-0.194-0.133s-0.151-0.047-0.231-0.047c-0.079 0-0.158 0.016-0.231 0.047s-0.139 0.076-0.194 0.133l-3.58 3.58c-0.057 0.056-0.102 0.123-0.132 0.197s-0.047 0.153-0.047 0.233 0.016 0.159 0.047 0.233c0.031 0.074 0.076 0.141 0.132 0.197l1.749 1.749 0.61-0.61-1.565-1.565 3.21-3.22 1.569 1.574 0.613-0.613zM15.328 15.965l-1.754-1.754c-0.055-0.057-0.121-0.102-0.194-0.133s-0.152-0.047-0.231-0.047c-0.079 0-0.158 0.016-0.231 0.047s-0.139 0.076-0.194 0.133l-3.59 3.59c-0.24 0.23-0.24 0.61 0 0.85l1.752 1.752 0.616-0.616-1.57-1.564 3.22-3.21 1.564 1.563 0.612-0.611zM8.822 8.193l3.58 3.58c0.24 0.24 0.62 0.24 0.85-0.010l3.58-3.58c0.057-0.054 0.102-0.119 0.133-0.192s0.047-0.15 0.047-0.228h0.010c0-0.15-0.060-0.31-0.18-0.43l-3.58-3.58c-0.056-0.057-0.123-0.102-0.197-0.133s-0.153-0.047-0.233-0.047c-0.080 0-0.159 0.016-0.233 0.047s-0.141 0.076-0.197 0.133l-3.58 3.59c-0.24 0.23-0.24 0.61 0 0.85zM3.752 13.263l3.58 3.58c0.24 0.24 0.62 0.24 0.85 0l3.58-3.58c0.058-0.055 0.104-0.122 0.135-0.196s0.046-0.154 0.045-0.234h0.010c0-0.16-0.060-0.31-0.18-0.43l-3.58-3.58c-0.055-0.057-0.121-0.102-0.194-0.133s-0.151-0.047-0.231-0.047c-0.079 0-0.158 0.016-0.231 0.047s-0.139 0.076-0.194 0.133l-3.59 3.59c-0.24 0.23-0.24 0.61 0 0.85zM10.685 22.017l2.362 2.363 9.636-13.040-0.655-0.655-11.343 11.332z"></path>
<path fill="#fd9222" style="fill: var(--color2, #fd9222)" d="M13.822 2.413l7.527 7.536 0.080-0.080c0.158-0.154 0.369-0.242 0.589-0.244s0.434 0.080 0.595 0.231l0.873 0.873c0.305 0.305 0.315 0.77 0.083 1.094l-0.004 0.007-0.143 0.192 6.16 6.16c0.55 0.55 0.55 1.43 0 1.98l-9.43 9.43c-0.55 0.55-1.43 0.55-1.98 0l-4.447-4.447c-0.074 0.093-0.167 0.169-0.272 0.224s-0.221 0.086-0.34 0.093c-0.119 0.007-0.237-0.012-0.348-0.054s-0.212-0.108-0.296-0.192l-2.6-2.6c-0.154-0.158-0.242-0.369-0.244-0.589s0.080-0.434 0.231-0.595l0.006-0.007 0.077-0.076-7.527-7.527c-0.55-0.55-0.55-1.43 0-1.98l9.43-9.43c0.55-0.55 1.43-0.55 1.98 0v0.001zM20.404 10.893l-1.756-1.755c-0.055-0.057-0.121-0.102-0.194-0.133s-0.151-0.047-0.231-0.047c-0.079 0-0.158 0.016-0.231 0.047s-0.139 0.076-0.194 0.133l-3.58 3.58c-0.057 0.056-0.102 0.123-0.132 0.197s-0.047 0.153-0.047 0.233 0.016 0.159 0.047 0.233c0.031 0.074 0.076 0.141 0.132 0.197l1.749 1.749 0.61-0.61-1.565-1.565 3.21-3.22 1.569 1.574 0.613-0.613zM15.328 15.965l-1.754-1.754c-0.055-0.057-0.121-0.102-0.194-0.133s-0.152-0.047-0.231-0.047c-0.079 0-0.158 0.016-0.231 0.047s-0.139 0.076-0.194 0.133l-3.59 3.59c-0.24 0.23-0.24 0.61 0 0.85l1.752 1.752 0.616-0.616-1.57-1.564 3.22-3.21 1.564 1.563 0.612-0.611zM8.822 8.193l3.58 3.58c0.24 0.24 0.62 0.24 0.85-0.010l3.58-3.58c0.057-0.054 0.102-0.119 0.133-0.192s0.047-0.15 0.047-0.228h0.010c0-0.15-0.060-0.31-0.18-0.43l-3.58-3.58c-0.056-0.057-0.123-0.102-0.197-0.133s-0.153-0.047-0.233-0.047c-0.080 0-0.159 0.016-0.233 0.047s-0.141 0.076-0.197 0.133l-3.58 3.59c-0.24 0.23-0.24 0.61 0 0.85zM3.752 13.263l3.58 3.58c0.24 0.24 0.62 0.24 0.85 0l3.58-3.58c0.058-0.055 0.104-0.122 0.135-0.196s0.046-0.154 0.045-0.234h0.010c0-0.16-0.060-0.31-0.18-0.43l-3.58-3.58c-0.055-0.057-0.121-0.102-0.194-0.133s-0.151-0.047-0.231-0.047c-0.079 0-0.158 0.016-0.231 0.047s-0.139 0.076-0.194 0.133l-3.59 3.59c-0.24 0.23-0.24 0.61 0 0.85zM10.685 22.017l2.362 2.363 9.636-13.040-0.655-0.655-11.343 11.332z"></path>
</symbol>
<symbol id="icon-Coin" viewBox="0 0 32 32">
<path fill="#fd9222" style="fill: var(--color2, #fd9222)" d="M16 2.667c-7.333 0-13.333 6-13.333 13.333s6 13.333 13.333 13.333 13.333-6 13.333-13.333c0-7.333-6-13.333-13.333-13.333zM16 26.667c-5.867 0-10.667-4.8-10.667-10.667s4.8-10.667 10.667-10.667 10.667 4.8 10.667 10.667c0 5.867-4.8 10.667-10.667 10.667z"></path>
<path fill="#fd9222" style="fill: var(--color2, #fd9222)" d="M17.733 14.667h-3.467c-0.667 0-1.2-0.533-1.2-1.2s0.533-1.2 1.2-1.2h4.933c0.8 0 1.333-0.533 1.333-1.333s-0.533-1.333-1.333-1.333h-1.867v-1.2c0-0.8-0.533-1.333-1.333-1.333s-1.333 0.533-1.333 1.333v1.2h-0.4c-2.133 0-3.867 1.733-3.867 3.867s1.733 3.867 3.867 3.867h3.333c0.667 0 1.2 0.533 1.2 1.2s-0.533 1.2-1.2 1.2h-4.933c-0.8 0-1.333 0.533-1.333 1.333s0.533 1.333 1.333 1.333h2v1.2c0 0.8 0.533 1.333 1.333 1.333s1.333-0.533 1.333-1.333v-1.2h0.4c2.133 0 3.867-1.733 3.867-3.867s-1.733-3.867-3.867-3.867z"></path>
</symbol>
<symbol id="icon-instagram" viewBox="0 0 32 32">
<path stroke-linejoin="round" stroke-linecap="round" stroke-miterlimit="4" stroke-width="2.6667" d="M22.667 2.667h-13.333c-3.682 0-6.667 2.985-6.667 6.667v13.333c0 3.682 2.985 6.667 6.667 6.667h13.333c3.682 0 6.667-2.985 6.667-6.667v-13.333c0-3.682-2.985-6.667-6.667-6.667z"></path>
<path stroke-linejoin="round" stroke-linecap="round" stroke-miterlimit="4" stroke-width="2.6667" d="M21.333 15.16c0.165 1.11-0.025 2.243-0.542 3.239s-1.334 1.803-2.336 2.307c-1.002 0.504-2.137 0.68-3.245 0.502s-2.131-0.701-2.924-1.494c-0.793-0.793-1.316-1.816-1.494-2.924s-0.003-2.243 0.502-3.245c0.504-1.002 1.312-1.819 2.308-2.336s2.129-0.706 3.239-0.542c1.132 0.168 2.18 0.695 2.989 1.504s1.337 1.857 1.504 2.989z"></path>
<path stroke-linejoin="round" stroke-linecap="round" stroke-miterlimit="4" stroke-width="2.6667" d="M23.333 8.667h0.013"></path>
</symbol>
<symbol id="icon-logo" viewBox="0 0 32 32">
<path fill="#fcf1e0" style="fill: var(--color3, #fcf1e0)" d="M3.944 20.076l10.777-17.424 0.64-0.674 8.236 5.491 0.056 3.314 2.010 3.28-8.88 14.077-12.839-8.063z"></path>
<path fill="none" stroke="#fd9222" style="stroke: var(--color2, #fd9222)" stroke-linejoin="round" stroke-linecap="round" stroke-miterlimit="4" stroke-width="2.6667" d="M21.635 23.88l-14.185-8.864M11.361 8.599l14.186 8.864M10.63 25.864l11.736-19.25M27.176 14.789c-3.040-1.899-4.234-3.384-2.278-6.592l-9.626-6.015-11.736 19.25 14.185 8.864 9.454-15.507z"></path>
</symbol>
<symbol id="icon-scrol-down" viewBox="0 0 32 32">
<path fill="#fd9222" style="fill: var(--color2, #fd9222)" d="M16.947 17.867c-0.124 0.125-0.271 0.224-0.434 0.292s-0.337 0.103-0.513 0.103-0.35-0.035-0.513-0.103c-0.162-0.068-0.31-0.167-0.434-0.292l-6.107-6.12c-0.124-0.125-0.271-0.224-0.434-0.292s-0.337-0.103-0.513-0.103c-0.176 0-0.35 0.035-0.513 0.103s-0.31 0.167-0.434 0.292c-0.248 0.25-0.388 0.588-0.388 0.94s0.139 0.69 0.388 0.94l6.12 6.12c0.75 0.749 1.767 1.17 2.827 1.17s2.077-0.421 2.827-1.17l6.12-6.12c0.246-0.248 0.385-0.584 0.387-0.933 0.001-0.175-0.033-0.349-0.099-0.512s-0.164-0.31-0.288-0.435c-0.124-0.125-0.271-0.224-0.434-0.292s-0.337-0.103-0.513-0.103-0.35 0.035-0.513 0.103c-0.162 0.068-0.31 0.167-0.434 0.292l-6.107 6.12z"></path>
</symbol>
<symbol id="icon-spoon" viewBox="0 0 32 32">
<path fill="#fd9222" style="fill: var(--color2, #fd9222)" d="M15.451 14.106c-0.783-0.95-1.177-2.116-1.177-3.282 0-4.324 5.181-8.642 10.362-8.642 2.86 0 5.181 2.321 5.181 5.182 0 5.182-4.318 10.364-8.646 10.364-1.166 0-2.331-0.394-3.281-1.177l-12.758 12.761c-0.675 0.675-1.77 0.675-2.445 0s-0.675-1.771 0-2.445l12.764-12.761z"></path>
</symbol>
<symbol id="icon-twitter" viewBox="0 0 32 32">
<path stroke-linejoin="round" stroke-linecap="round" stroke-miterlimit="4" stroke-width="2.6667" d="M30.667 4c-1.277 0.901-2.691 1.589-4.187 2.040-0.803-0.923-1.87-1.578-3.057-1.875s-2.437-0.222-3.58 0.214c-1.143 0.436-2.125 1.213-2.812 2.226s-1.047 2.212-1.031 3.435v1.333c-2.343 0.061-4.665-0.459-6.759-1.513s-4.561-3.563-5.908-5.481c0 0-4.667 12.954 7.333 18.287-2.746 1.864-6.017 2.799-9.333 2.667 12 6.667 26.667 0 26.667-15.333-0.001-0.371-0.037-0.742-0.107-1.107 1.361-1.342 2.321-3.036 2.773-4.893z"></path>
</symbol>
<symbol id="icon-adobecreativecloud" viewBox="0 0 32 32">
<path fill="#d41818" style="fill: var(--color4, #d41818)" d="M32 15.465v1.071c-0.011 0.059-0.023 0.116-0.029 0.173-0.053 0.467-0.089 0.935-0.165 1.397-0.265 1.579-0.814 2.99-1.596 4.241l0.028-0.049c-1.173 1.925-2.825 3.455-4.793 4.449l-0.067 0.031c-1.089 0.561-2.356 0.958-3.696 1.119l-0.054 0.005c-0.289 0.035-0.58 0.065-0.869 0.097h-11.241c-0.057-0.011-0.113-0.027-0.171-0.032-1.196-0.075-2.308-0.361-3.323-0.821l0.059 0.024c-2.263-1.007-3.951-2.64-5.055-4.885-0.463-0.918-0.792-1.986-0.929-3.113l-0.005-0.047-0.095-0.803v-1.040c0.011-0.057 0.027-0.115 0.031-0.173 0.061-1.057 0.281-2.046 0.637-2.966l-0.023 0.066c0.955-2.507 2.621-4.368 4.984-5.572 1.135-0.587 2.469-0.959 3.882-1.026l0.022-0.001c0.15-0.008 0.325-0.012 0.501-0.012 0.53 0 1.051 0.039 1.561 0.113l-0.058-0.007c0.007 0.001 0.014 0.001 0.022 0.001 0.064 0 0.123-0.024 0.167-0.064l-0 0c0.926-0.966 2.009-1.773 3.21-2.382l0.068-0.031c1.094-0.563 2.367-0.962 3.712-1.125l0.054-0.005c0.312-0.036 0.623-0.067 0.933-0.099h0.96c0.061 0.009 0.125 0.021 0.187 0.028 0.476 0.057 0.953 0.093 1.424 0.173 1.546 0.272 2.925 0.825 4.142 1.608l-0.044-0.027c1.912 1.205 3.425 2.886 4.394 4.88l0.031 0.070c0.553 1.11 0.945 2.4 1.102 3.762l0.005 0.054c0.035 0.305 0.064 0.611 0.096 0.916zM14.107 8.532c0.020 0.027 0.025 0.039 0.033 0.043 0.657 0.329 1.287 0.717 1.88 1.156 0.037 0.027 0.131 0.016 0.176-0.013 1.629-1.049 3.396-1.412 5.293-1.069 1.86 0.335 3.373 1.28 4.529 2.789 1.309 1.707 1.809 3.64 1.448 5.787-0.243 1.44-0.811 2.733-1.773 3.815-1.76 1.973-3.964 2.789-6.557 2.444-1.596-0.213-2.973-0.913-4.115-2.085-1.464-1.504-2.939-2.997-4.407-4.497-0.196-0.2-0.413-0.36-0.695-0.396-0.044-0.006-0.095-0.010-0.147-0.010-0.445 0-0.828 0.264-1.002 0.643l-0.003 0.007c-0.189 0.4-0.165 0.853 0.247 1.264 1.636 1.635 3.259 3.283 4.893 4.92 0.28 0.28 0.58 0.54 0.899 0.776 1.195 0.881 2.541 1.369 4 1.565 1.144 0.155 2.28 0.12 3.407-0.136 2.149-0.492 3.931-1.607 5.333-3.329 1.105-1.342 1.859-3.013 2.096-4.845l0.005-0.048c0.056-0.393 0.088-0.847 0.088-1.308 0-0.65-0.064-1.286-0.185-1.9l0.010 0.062c-0.325-1.693-1.031-3.211-2.16-4.503-2.157-2.461-4.871-3.56-8.099-3.316-1.306 0.111-2.503 0.488-3.567 1.076l0.046-0.023c-0.636 0.339-1.184 0.715-1.686 1.144l0.013-0.011zM13.317 25.72c-0.056-0.052-0.099-0.093-0.142-0.134l0.009 0.009c-0.668-0.643-1.341-1.28-2.003-1.932-0.099-0.113-0.243-0.183-0.404-0.183-0.008 0-0.016 0-0.024 0l0.001-0c-0.669 0.016-1.34 0.019-2-0.133-3.281-0.753-5.187-4.381-3.977-7.573 0.953-2.519 3.595-4.051 6.199-3.579 1.167 0.212 2.192 0.715 3.032 1.596 1.027 1.077 2.083 2.123 3.12 3.188 0.235 0.243 0.507 0.353 0.833 0.307 0.421-0.061 0.759-0.267 0.911-0.688 0.149-0.413 0.077-0.807-0.231-1.125-1.088-1.12-2.151-2.269-3.283-3.343-2.196-2.081-4.784-2.701-7.648-1.816-3.851 1.191-6.105 5.235-5.225 9.225 0.803 3.636 3.929 6.187 7.588 6.191h3.065c0.051 0 0.101-0.005 0.179-0.009z"></path>
</symbol>
<symbol id="icon-adobephotoshop" viewBox="0 0 32 32">
<path fill="#00c8ff" style="fill: var(--color5, #00c8ff)" d="M0 0.4v31.2h32v-31.2zM1.333 1.733h29.333v28.533h-29.333zM7.733 7.707c0-0.089 0.187-0.155 0.299-0.155 0.859-0.044 2.117-0.067 3.437-0.067 3.696 0 5.133 2.027 5.133 4.621 0 3.387-2.456 4.84-5.469 4.84-0.507 0-0.68-0.023-1.033-0.023v5.123c0 0.111-0.044 0.155-0.153 0.155h-2.059c-0.111 0-0.153-0.040-0.153-0.151zM10.1 14.789c0.307 0.021 0.549 0.021 1.080 0.021 1.56 0 3.027-0.549 3.027-2.661 0-1.693-1.048-2.552-2.829-2.552-0.528 0-1.033 0.021-1.276 0.044zM21.576 13.205c-1.056 0-1.408 0.528-1.408 0.968 0 0.484 0.24 0.813 1.649 1.54 2.091 1.013 2.749 1.98 2.749 3.409 0 2.133-1.627 3.28-3.827 3.28-1.168 0-2.16-0.244-2.733-0.573-0.087-0.044-0.107-0.109-0.107-0.22v-1.956c0-0.133 0.064-0.177 0.152-0.112 0.832 0.551 1.803 0.792 2.683 0.792 1.056 0 1.496-0.44 1.496-1.035 0-0.484-0.307-0.903-1.649-1.607-1.893-0.907-2.685-1.827-2.685-3.369 0-1.716 1.341-3.147 3.673-3.147 1.147 0 1.952 0.176 2.392 0.373 0.109 0.067 0.133 0.176 0.133 0.264v1.827c0 0.111-0.067 0.177-0.2 0.133-0.592-0.352-1.467-0.573-2.319-0.568z"></path>
</symbol>
<symbol id="icon-analogue" viewBox="0 0 32 32">
<path d="M7.291 17.072c-0.128-0.009-0.278-0.013-0.429-0.013-3.789 0-6.86 3.071-6.86 6.86 0 3.638 2.831 6.614 6.411 6.846l0.020 0.001c0.128 0.009 0.278 0.013 0.429 0.013 3.789 0 6.86-3.071 6.86-6.86 0-3.638-2.831-6.614-6.411-6.846l-0.020-0.001zM31.079 20.488l-9.145-15.843c-1.209-2.064-3.416-3.429-5.941-3.429-3.79 0-6.862 3.072-6.862 6.862 0 1.264 0.342 2.449 0.938 3.466l-0.018-0.032 9.147 15.837c1.209 2.066 3.417 3.432 5.944 3.432 1.263 0 2.446-0.341 3.463-0.936l-0.032 0.018c2.064-1.209 3.428-3.415 3.428-5.941 0-1.265-0.342-2.449-0.939-3.466l0.018 0.032z"></path>
</symbol>
<symbol id="icon-apachespark" viewBox="0 0 32 32">
<path fill="#e25a1c" style="fill: var(--color6, #e25a1c)" d="M14.416 0c-0.567 0.017-1.127 0.287-1.595 0.807-0.248 0.28-0.466 0.596-0.645 0.936l-0.013 0.026c-0.473 0.889-0.567 1.887-0.741 2.857 0.362-2.708 0.024-0.86-0.307 0.99l-0.661 4.459c-0.036 0.213-0.128 0.303-0.325 0.364-2.356 0.741-4.716 1.48-7.063 2.245-0.516 0.167-1.031 0.385-1.485 0.675-1.389 0.887-1.595 2.337-0.553 3.613 0.461 0.563 1.053 0.953 1.712 1.248 1.467 0.653 2.936 1.301 4.4 1.96 0.025 0.013 0.048 0.017 0.071 0.025h-0.005l1.741 0.713c0 0.031 0.003 0.060 0 0.097-0.267 2.707-0.52 5.417-0.773 8.127-0.053 0.559-0.016 1.108 0.179 1.64 0.423 1.16 1.42 1.531 2.508 0.935 0.496-0.272 0.888-0.663 1.249-1.091 1.829-2.164 3.661-4.325 5.484-6.496 0.148-0.177 0.273-0.2 0.484-0.131 0.465 0.156 0.929 0.308 1.393 0.463h0.001c0.027 0.016 0.060 0.027 0.097 0.040l0.189 0.056c1.664 0.555 3.573 1.033 5.239 1.587 0.533 0.176 0.829 0.219 1.393 0.131 0.415-0.064 0.789-0.083 1.104-0.315 0.803-0.44 1.327-1.276 1.317-2.243-0.007-0.569-0.205-1.084-0.467-1.581-1.093-2.075-2.183-4.151-3.281-6.221-0.104-0.197-0.101-0.324 0.049-0.5 1.841-2.153 3.675-4.315 5.511-6.473 0.363-0.427 0.684-0.877 0.871-1.411 0.411-1.171-0.12-2.093-1.333-2.321-0.187-0.033-0.402-0.052-0.622-0.052-0.365 0-0.718 0.053-1.051 0.151l0.026-0.007c-2.632 0.695-5.263 1.388-7.891 2.093-0.233 0.063-0.347 0.020-0.473-0.192-2.242-3.88-3.31-5.628-4.389-7.369l1.161 2.012c-0.258-0.428-0.546-0.799-0.871-1.133l0.001 0.001c-0.495-0.493-1.069-0.732-1.637-0.716zM14.645 4.937c0.105 0.072 0.19 0.167 0.25 0.277l0.002 0.004c1.16 1.928 2.323 3.853 3.479 5.784 0.093 0.157 0.18 0.213 0.369 0.161 2.033-0.547 4.069-1.084 6.105-1.623 0.489-0.131 0.98-0.257 1.471-0.385-0.019 0.104-0.067 0.195-0.134 0.267l0-0c-1.679 1.973-3.355 3.949-5.039 5.917-0.147 0.173-0.16 0.293-0.053 0.493 1.249 2.404 2.357 4.412 3.331 6.347l-4.928-1.359c-0.717-0.24-1.436-0.477-2.153-0.719-0.217-0.073-0.333-0.040-0.48 0.133-1.664 1.984-3.339 3.96-5.012 5.939-0.061 0.079-0.142 0.14-0.236 0.175l-0.004 0.001c0.047-0.504 0.091-1.009 0.139-1.515 0.199-2.096 0.396-4.192 0.601-6.288-0.040-0.424 0.156-0.54-0.429-0.727-1.991-0.791-4.461-1.761-6.421-2.54 0.088-0.081 0.196-0.143 0.314-0.177l0.006-0.001c2.396-0.76 4.793-1.52 7.192-2.273 0.169-0.053 0.265-0.123 0.281-0.311 0.017-0.197 0.067-0.392 0.101-0.588 0.321-1.817 0.644-3.635 0.968-5.451 0.091-0.515 0.187-1.028 0.28-1.543z"></path>
</symbol>
<symbol id="icon-mobile-burger" viewBox="0 0 32 32">
<path stroke-linejoin="round" stroke-linecap="round" stroke-miterlimit="4" stroke-width="2.2857" d="M4 16h24M4 8h24M4 24h24"></path>
</symbol>
</defs>
</svg>
